# xmcd
#
# Track frame offsets: 
#        150
#        21775
#        38517
#        70492
#        85720
#        101922
#        127162
#        143357
#        173405
#        193967
#
# Disc length: 2919 seconds
#
# Revision: 0
# Processed by: cddbd v1.5PL3 Copyright (c) Steve Scherf et al.
# Submitted via: ExactAudioCopy v0.90b4
#
DISCID=820b650a
DTITLE=Dave Steel and The Welcome Wagon - Been On This Road Too Long
DYEAR=2004
DGENRE=Blues
TTITLE0=Morning Train
TTITLE1=West Coast Railway
TTITLE2=Back Door Man
TTITLE3=Rollin' (Like A River)
TTITLE4=Rollin' And Tumblin'
TTITLE5=Been On This Road Too Long
TTITLE6=West Australia Blues
TTITLE7=Out Of Sight
TTITLE8=Hangin' Tree
TTITLE9=Death Letter
EXTD=
EXTT0=
EXTT1=
EXTT2=
EXTT3=
EXTT4=
EXTT5=
EXTT6=
EXTT7=
EXTT8=
EXTT9=
PLAYORDER=
